<svg id="Layer_1" data-name="Layer 1" xmlns="http://www.w3.org/2000/svg" viewBox="0 0 136 101"><defs><style>.cls-1{fill:#c2000b;}</style></defs><title>correo</title><polygon class="cls-1" points="-0.13 21.06 -0.13 88.65 40.5 54.85 -0.13 21.06"/><path class="cls-1" d="M125.8,0H10.66A10.83,10.83,0,0,0,0,9L53.74,53.66l9,7.45a9,9,0,0,0,11.06,0l9.41-7.82L136.43,9A10.83,10.83,0,0,0,125.8,0Z"/><polygon class="cls-1" points="136.59 88.65 136.59 21.06 95.95 54.85 136.59 88.65"/><path class="cls-1" d="M81,67.26l-7.27,6a9,9,0,0,1-11.06,0l-9.38-7.8-5.48-4.56L3.93,97.46a10.74,10.74,0,0,0,6.73,2.38H125.8a10.73,10.73,0,0,0,6.73-2.38L88.61,60.95Z"/></svg>