<svg id="Layer_1" data-name="Layer 1" xmlns="http://www.w3.org/2000/svg" viewBox="0 0 101 101"><defs><style>.cls-1{fill:#c2000b;}</style></defs><title>instagram</title><path class="cls-1" d="M81.65-.69H19.72A19.52,19.52,0,0,0,.22,18.82V80.75a19.53,19.53,0,0,0,19.5,19.51H81.65a19.53,19.53,0,0,0,19.51-19.51V18.82A19.53,19.53,0,0,0,81.65-.69ZM87.25,11h2.23V28l-17,.06L72.37,11Zm-51,28.47a17.71,17.71,0,0,1,28.81,0,18.13,18.13,0,0,1,1.07,1.69,17.59,17.59,0,0,1,2.3,8.66,17.77,17.77,0,0,1-35.54,0,17.58,17.58,0,0,1,2.3-8.66A18.56,18.56,0,0,1,36.28,39.43Zm55,41.32a9.69,9.69,0,0,1-9.68,9.67H19.72a9.68,9.68,0,0,1-9.67-9.67V39.43H25.12a28,28,0,0,0-2,10.35,27.6,27.6,0,1,0,55.2,0,27.25,27.25,0,0,0-1.06-7.51,28,28,0,0,0-1-2.85H91.33V80.75Z"/></svg>