<svg id="Layer_1" data-name="Layer 1" xmlns="http://www.w3.org/2000/svg" viewBox="0 0 117 101"><defs><style>.cls-2{fill:#c2000b;}</style></defs><title>servicio dos</title><path class="cls-2" d="M64.23,89.39c-.18.29-.37.59-.56.86a27.83,27.83,0,0,1-1.9,2.54l-1,.11-1.76.2c.3-.57.6-1.18.88-1.8.38-.83.75-1.68,1.09-2.59l.19-.52c1.08-.11,2.12-.25,3.16-.39.09-1.09.17-2.27.28-3.62l-2.17.24.17-.61c-1,0-2-.06-3-.12-.08.33-.16.68-.24,1-.86.05-1.75.09-2.63.13-.63,0-1.25.08-1.89.1l.31-1.64q-1.41-.17-2.81-.39c-.07.58-.14,1.15-.2,1.71l0,.38H49c-.11-.88-.21-1.81-.32-2.75-1-.21-2-.43-3-.68.2,1.16.4,2.29.61,3.36l-1-.06c-1,0-2-.11-3-.18l-.5,0c-.34-1.33-.65-2.73-.94-4.2,0-.08,0-.17,0-.25Q39,79.66,37.28,79c.09.39.17.78.26,1.16.35,1.45.72,2.84,1.11,4.18l-1.15-.14c-1.11-.13-2.2-.27-3.27-.43l-.39-.05c-.6-1.34-1.16-2.76-1.69-4.25-.34-1-.65-1.94-1-2.94q-2.11-1-4.16-2.07c.06.19.11.36.16.54.39,1.3.79,2.57,1.23,3.8.53,1.48,1.11,2.92,1.73,4.28l-1.39-.29c-.87-.18-1.73-.38-2.57-.59a54.93,54.93,0,0,1-3.89-8.32c-.14-.37-.28-.73-.41-1.11l.57.19q1.87.63,3.87,1.18l.25.07a66.07,66.07,0,0,1-10.13-6.8l-.31-.14c-1-.42-1.89-.86-2.75-1.31l-1.08-.58c-.21-.75-.4-1.51-.57-2.27a53.32,53.32,0,0,1-4.62-5.41c.11.93.23,1.86.38,2.77.11.65.22,1.29.35,1.93l-.25-.21a19.76,19.76,0,0,1-3-3A47.48,47.48,0,0,1,4,52.93a49.09,49.09,0,0,1-3.5-7.38,49.2,49.2,0,0,0-.33,5.69,48.49,48.49,0,0,0,.7,8.26c.19,1.16.43,2.29.7,3.41q.49,2,1.15,4A48.89,48.89,0,0,0,9.41,80.09c.15.21.31.4.46.6A48.89,48.89,0,0,0,28.42,95.92,52.4,52.4,0,0,0,37.33,99a49.44,49.44,0,0,0,7.09,1.47l1.57.18c.78.08,1.57.13,2.36.18s1.39.06,2.08.07H51c.53,0,1,0,1.57-.05H53a49.42,49.42,0,0,0,21.88-6A49.32,49.32,0,0,0,91,81.08,174.7,174.7,0,0,1,63.76,96.47C63.94,93.6,64.08,91.55,64.23,89.39ZM11.75,76.47l-.83-.57A47,47,0,0,1,5.39,62.83a25.43,25.43,0,0,0,2.82,2.7l.5.41q.44,1.64,1,3.22c.44,1.32.95,2.59,1.48,3.84.66,1.53,1.36,3,2.13,4.44C12.74,77.11,12.23,76.79,11.75,76.47ZM17.25,84c-1-1.06-2-2.16-3-3.31.47.28.95.54,1.45.81.62.92,1.27,1.8,1.93,2.64.38.5.77,1,1.17,1.46C18.3,85.07,17.78,84.52,17.25,84Zm3-3.48L18.81,80a52,52,0,0,1-5.33-10.87c1.08.6,2.25,1.18,3.46,1.73l.67.31c.17.53.36,1,.54,1.56.45,1.31.94,2.59,1.47,3.83C20.3,78.07,21,79.57,21.78,81Zm7.38,9.59-.09,0a41.09,41.09,0,0,1-4.46-4.39c-.21-.23-.4-.47-.6-.71s-.47-.54-.69-.82l.3.1c.66.23,1.33.47,2,.68.26.4.54.79.81,1.17a40.18,40.18,0,0,0,3.32,4.14l.07.09Zm6.12,1.67c-.25-.22-.5-.47-.75-.7a35.25,35.25,0,0,1-4.21-4.82l1.44.32c.62.14,1.23.28,1.86.41.08.14.16.27.24.41a38.93,38.93,0,0,0,2.58,3.93l.38.5.24.3C34.95,92,34.35,91.88,33.77,91.75Zm6,1-.47-.05a29.12,29.12,0,0,1-1.83-2.45c-.56-.83-1.11-1.71-1.64-2.64.83.12,1.7.22,2.55.33l.91.12.65.09c.07.18.14.37.21.55.43,1.14.9,2.2,1.39,3.2.18.38.37.78.55,1.13C41.27,92.95,40.51,92.86,39.75,92.76Zm4,4.08.87.08a11.16,11.16,0,0,0,.92,1A14.94,14.94,0,0,1,43.76,96.84Zm.88-3.6a38.7,38.7,0,0,1-1.84-4.82c1.39.11,2.81.19,4.23.23.28,1.24.55,2.38.81,3.43l.29,1.14c0,.06,0,.13.05.19h-.07c-.63,0-1.23-.06-1.85-.1S45.17,93.28,44.64,93.24ZM48,98.19a8,8,0,0,1-.61-.62c-.14-.14-.27-.31-.4-.48.78,0,1.57.07,2.36.09.14.41.27.78.4,1.1C49.12,98.26,48.53,98.23,48,98.19Zm2.6-1v0h0ZM51,93.45H50.1c-.18-1.39-.4-3-.62-4.74h2.17c-.15,1.18-.3,2.27-.43,3.28C51.15,92.51,51.09,93,51,93.45Zm2.75,4.12a6.48,6.48,0,0,1-.68.67c-.56,0-1.11,0-1.68,0l.39-1.1c.8,0,1.58,0,2.36-.08C54,97.27,53.91,97.43,53.78,97.57Zm1.79.36a11.81,11.81,0,0,0,.9-1l.87-.09A17.25,17.25,0,0,1,55.58,97.93Zm.89-4.64-2,.09-1.5.06c.13-.48.26-1,.4-1.54.25-1,.5-2.07.76-3.23q2.14-.06,4.23-.23A39.64,39.64,0,0,1,56.47,93.29Z"/><path class="cls-2" d="M100.72,56.24a47.91,47.91,0,0,0,.25-5A49.56,49.56,0,0,0,91.71,22.4a48.84,48.84,0,0,0-12-11.82A49.8,49.8,0,0,0,35.55,3.95a53.37,53.37,0,0,0-7.14,2.62,48.5,48.5,0,0,0-6.24,3.51A8.11,8.11,0,0,0,20.6,11a4.05,4.05,0,0,0-.84.79A49.37,49.37,0,0,0,12.93,18,48.63,48.63,0,0,0,9.41,22.4a47.21,47.21,0,0,0-3.54,5.73c-.18-.44-.36-.89-.53-1.34A62.72,62.72,0,0,1,1.55,12.3a64.8,64.8,0,0,0-.9,14.17C2.52,63.78,39.92,80.7,68,80.45c-.4,5.06-.58,7.6-.9,12.66a175.28,175.28,0,0,0,46.52-30.82c1.2-1.09,2.39-2.2,3.58-3.34A118.1,118.1,0,0,1,100.72,56.24ZM95.26,37.72A47.18,47.18,0,0,1,97,47.2c0,.53.1,1,.13,1.57a14.38,14.38,0,0,1-2.83,2.86c0-.13,0-.25,0-.39A55.68,55.68,0,0,0,93.23,40a12.39,12.39,0,0,0,1.61-1.71A6.71,6.71,0,0,0,95.26,37.72ZM90.18,26.34a47.42,47.42,0,0,1,4.5,9.58l-.23.33c-.07.11-.18.2-.26.3a9.78,9.78,0,0,1-1.43,1.38,53.26,53.26,0,0,0-3.64-10.31l.29-.31A9.43,9.43,0,0,0,90.18,26.34Zm-6.71,5c1-.48,1.9-1,2.74-1.48.06.14.12.3.18.45A52.5,52.5,0,0,1,89.5,40l-.39.2c-1,.52-2.06,1-3.24,1.49A63.3,63.3,0,0,0,83.47,31.29Zm-2-15.37a47.35,47.35,0,0,1,7.4,8.46l.41.6a6.27,6.27,0,0,1-.89.88L88.3,26c-.16-.32-.34-.62-.51-.94s-.41-.77-.63-1.15a47.42,47.42,0,0,0-5.7-7.9ZM79.2,18.23a49.69,49.69,0,0,1,5.35,8.17c.24.46.49.9.72,1.37l-.95.43c-.53.23-1.09.46-1.66.69a56.84,56.84,0,0,0-4.52-9.49l0-.07L77.92,19C78.36,18.76,78.79,18.5,79.2,18.23ZM74.5,29.6a66.91,66.91,0,0,0-2.68-8.17c1.1-.33,2.15-.68,3.14-1.07.25.43.49.88.72,1.32A56.71,56.71,0,0,1,79.34,30l-.83.24c-1.07.32-2.19.62-3.36.91l-.23.06C74.79,30.68,74.64,30.14,74.5,29.6ZM76,36.4c-.12-.71-.25-1.41-.38-2.11,1.63-.48,3.17-1,4.6-1.57.16.55.3,1.11.45,1.66A63.51,63.51,0,0,1,82.3,43l-.13,0c-1.13.37-2.33.7-3.56,1-.55.14-1.09.3-1.66.44C76.75,41.74,76.41,39,76,36.4ZM72.14,11.3a39.83,39.83,0,0,1,5.45,5,9.89,9.89,0,0,1-1.1.49A39.62,39.62,0,0,0,71.69,11l-.32-.32C71.63,10.9,71.88,11.11,72.14,11.3ZM64.67,8.53a31.49,31.49,0,0,1,2.49,2,36.18,36.18,0,0,1,6.25,7.28l-.77.2-.91.23-1.17.27a45.82,45.82,0,0,0-2.16-4.06l-.1-.18a37.61,37.61,0,0,0-2.48-3.61c-.54-.71-1.1-1.38-1.66-2Zm-.33,17.28c-.18-.91-.37-1.8-.56-2.67,1.7-.25,3.35-.55,4.91-.9q.4,1.1.78,2.24a72.44,72.44,0,0,1,2,7.52l-.57.1c-1.11.21-2.25.4-3.43.59-.65.1-1.31.21-2,.29C65.18,30.49,64.79,28.09,64.34,25.81ZM61.46,9.34a26.88,26.88,0,0,1,2.22,2.9A37.32,37.32,0,0,1,65.91,16c.53,1,1,2,1.52,3.13l-1.55.23c-1,.14-1.95.26-3,.37-.58-2.12-1.22-4.1-1.92-5.92A40.44,40.44,0,0,0,59.19,9.7Q60.33,9.55,61.46,9.34ZM56,23.91c1.59-.09,3.14-.21,4.66-.37.17.93.33,1.88.48,2.86.35,2.23.67,4.57.91,7l-.3,0c-1.12.11-2.27.19-3.43.27l-1.09.08c-.24-2.37-.51-4.63-.8-6.8C56.25,25.93,56.11,24.9,56,23.91Zm1.55,13.55c1.65-.12,3.26-.27,4.84-.46.25,3.17.43,6.47.5,9.87-1.14.11-2.31.19-3.48.26L58,47.24c-.05-2.31-.17-4.55-.3-6.75C57.65,39.48,57.59,38.45,57.51,37.46Zm1-22.8c.5,1.64,1,3.42,1.4,5.33l-1.25.07c-1,.06-1.91.12-2.89.16l-.41,0c-.23-1.33-.47-2.59-.71-3.79-.48-2.36-1-4.47-1.42-6.28,1.21,0,2.41-.09,3.59-.21.37.86.73,1.79,1.07,2.77C58.09,13.35,58.31,14,58.5,14.65Zm-7.75,23c1.07,0,2.13,0,3.18-.05.18,3.13.3,6.38.37,9.74-1.14,0-2.3,0-3.46,0h-.21c-1.28,0-2.55,0-3.81-.07,0-2.14.11-4.22.2-6.27,0-1.15.09-2.31.16-3.43C48.36,37.66,49.55,37.69,50.75,37.69Zm-3.33-3.8q.24-3.37.53-6.5c.1-1.15.22-2.29.33-3.38.6,0,1.21,0,1.83,0q1.38,0,2.74,0c.11,1,.21,2.12.31,3.21.2,2.14.38,4.37.54,6.7h-.22c-.9,0-1.81,0-2.73,0h-.67C49.19,33.94,48.3,33.93,47.42,33.9Zm10.23-28h0l-.83.06-.21-.25a12.51,12.51,0,0,0-1-1.09A17.37,17.37,0,0,1,57.66,5.85ZM53,4.18a6.32,6.32,0,0,1,.76.74l.3.35c.19.23.38.47.57.74-.85,0-1.71.06-2.58.08C52,5.7,51.83,5.35,51.72,5s-.23-.63-.33-.89C51.93,4.13,52.47,4.14,53,4.18ZM50.56,5.29c0,.24.07.53.1.81h-.19C50.51,5.82,50.54,5.54,50.56,5.29Zm.07,4.93h.56l.42,3.22c.26,2.05.55,4.36.84,6.87H50.12l-1.43,0h0c.45-3.93.89-7.33,1.25-10.08Zm-3.29-5.3.06-.06A8.36,8.36,0,0,1,48,4.23c.56,0,1.12-.07,1.68-.08-.09.22-.18.48-.27.75s-.26.75-.41,1.2L46.47,6A13.12,13.12,0,0,1,47.34,4.92Zm-2.46,0c.23-.13.45-.27.67-.37-.12.11-.23.23-.34.35-.29.3-.57.62-.86,1l-.87-.07C44,5.5,44.43,5.2,44.88,4.94ZM43,13.44c.41-1.26.86-2.43,1.32-3.48,1.18.11,2.37.16,3.58.21-.26,1-.54,2.18-.81,3.42-.44,2-.89,4.21-1.32,6.64h-.06l-2.66-.13L41.23,20c.42-1.9.88-3.68,1.39-5.32C42.74,14.24,42.87,13.84,43,13.44ZM39.8,37c1.25.15,2.52.28,3.81.37-.25,3.12-.43,6.39-.51,9.76-1.09-.06-2.16-.15-3.23-.24-.53,0-1.09-.06-1.61-.11,0-2.11.15-4.16.26-6.19.07-1.24.15-2.47.25-3.67v0Zm-.69-3.7c.22-2.15.49-4.22.8-6.21.18-1.22.38-2.42.59-3.57,1.52.15,3.08.27,4.66.36-.47,3-.89,6.34-1.23,9.83-1-.06-2-.16-3-.25C40.35,33.43,39.72,33.4,39.11,33.34ZM37.45,12.24a26,26,0,0,1,2.25-2.92c.74.14,1.5.26,2.25.37a41.11,41.11,0,0,0-1.82,4.1q-1,2.73-1.91,5.91c-.76-.08-1.52-.16-2.26-.26s-1.51-.21-2.24-.32a42.07,42.07,0,0,1,3.38-6.31ZM24.17,44.67c-1-.23-2-.49-3-.75s-1.63-.46-2.4-.7c.26-2.19.64-4.32,1.09-6.4.21-1,.45-1.93.71-2.88.12-.44.23-.88.36-1.32.7.27,1.43.53,2.18.79s1.59.52,2.42.77A86,86,0,0,0,24.17,44.67Zm-.24-14.1c-.73-.2-1.43-.4-2.12-.61a58.25,58.25,0,0,1,2.32-5.69c.44-1,.91-1.87,1.4-2.76.21-.37.39-.74.6-1.1.5.19,1,.38,1.55.56s1.05.35,1.6.51a68.13,68.13,0,0,0-3.07,9.68Q25,30.87,23.93,30.57Zm4.51,8.54c.15-1.13.31-2.26.49-3.36,0-.21.07-.42.11-.63,1.06.26,2.16.51,3.29.73.95.19,1.91.37,2.9.54-.34,3.23-.56,6.59-.67,10-1.09-.13-2.14-.27-3.18-.43-1.21-.18-2.39-.37-3.54-.58C28,43.28,28.17,41.18,28.43,39.12Zm7.19-6.21c-.95-.13-1.88-.27-2.79-.43-1.09-.18-2.16-.37-3.18-.58q.67-3,1.52-5.84c.34-1.13.71-2.24,1.09-3.3l.17-.48q1.22.27,2.5.5t2.4.39C36.66,26.19,36.08,29.46,35.62,32.91ZM34,10.56c.85-.76,1.7-1.45,2.53-2.07l.51.18a23.89,23.89,0,0,0-1.69,2,42,42,0,0,0-4.75,7.84c-.48-.1-.95-.2-1.41-.32s-1-.25-1.44-.38a40.76,40.76,0,0,1,3.09-4.08A31.47,31.47,0,0,1,34,10.56Zm-4.21.16a39.57,39.57,0,0,0-5.11,6.08l-.56-.23,0,0-.49-.22h0A38.63,38.63,0,0,1,29.76,10.72ZM20.64,19.9c.4-.55.81-1.09,1.22-1.61l.53.33.48.3.29.15a55.59,55.59,0,0,0-4.67,9.76c-.6-.22-1.16-.44-1.69-.67l-.93-.41a51.5,51.5,0,0,1,3.28-5.7C19.63,21.31,20.12,20.6,20.64,19.9Zm-6.72,2.35a46.87,46.87,0,0,1,5.23-5.69A47.65,47.65,0,0,0,14,23.87c-.41.69-.79,1.41-1.17,2.13a8.23,8.23,0,0,1-.89-.78l0-.05,0,0C12.47,24.14,13.19,23.19,13.92,22.25ZM8,32.45l-.08-.14c.21-.49.42-1,.64-1.44s.53-1,.8-1.56c.51-1,1.05-1.94,1.63-2.87l.06.07a9,9,0,0,0,1,1.09,52.94,52.94,0,0,0-2.74,7.09Q8.6,33.59,8,32.45Zm4.88,7.36c-.3-.38-.62-.76-.92-1.15.37-1.57.82-3.1,1.32-4.6.26-.76.53-1.52.82-2.26s.54-1.37.84-2c.3.18.62.36.94.53.57.31,1.16.62,1.8.92a63.42,63.42,0,0,0-2.44,10.71c-.33-.13-.62-.27-.92-.41C13.82,41,13.34,40.39,12.87,39.81Zm8,7.82c-.48-.37-.95-.74-1.41-1.13l1.47.5c1,.32,2,.63,3.1.91,0,.65,0,1.31,0,2C22.88,49.17,21.85,48.42,20.83,47.63Zm10.28,6.21-1.44-.7q-1-.49-2-1c0-.29,0-.57,0-.86q0-1,0-1.92c0-.17,0-.35,0-.52,1.13.24,2.31.47,3.5.68s2.16.36,3.28.51c0,.42,0,.83,0,1.25,0,1.36,0,2.69.06,4C33.38,54.82,32.23,54.35,31.11,53.83ZM39.73,57c-.48-.13-1-.28-1.43-.43,0-.81,0-1.63,0-2.45s0-1.9,0-2.86v-.79c1.59.16,3.2.3,4.84.41v.37c0,2.25.06,4.45.15,6.61Q41.45,57.47,39.73,57Zm11.18,2.17c-1.34-.15-2.67-.33-4-.55q-.06-2-.09-4.11c0-1.07,0-2.14,0-3.24,0-.07,0-.13,0-.2q1.89.07,3.82.09t3.73,0v.15c0,2.8-.07,5.52-.16,8.19C53.08,59.36,52,59.27,50.91,59.15Zm8.57.47-1.64,0Q58,56.86,58,54c0-.92,0-1.83,0-2.76v-.32c1.64-.11,3.26-.24,4.84-.42,0,.25,0,.49,0,.74,0,2.83-.09,5.6-.21,8.3C61.63,59.59,60.55,59.62,59.48,59.62ZM71,49.52c-.35,3-.62,5.59-1,9.45-1,.13-2,.23-3,.32l-.49,0c.11-2.13.18-4.31.21-6.52,0-.52,0-1,0-1.57s0-.82,0-1.23c.44-.07.87-.15,1.32-.23.07-.58.13-1.19.21-1.84.81.47,1.62.92,2.44,1.37l.39-.08C71,49.33,71,49.43,71,49.52Zm.57-4.93c0,.38-.09.74-.13,1.09l-1.7.3c-1,.17-2.08.33-3.15.46-.08-2.49-.23-4.9-.43-7.27-.07-.9-.13-1.81-.23-2.69,2.16-.35,4.24-.78,6.2-1.25.14.77.26,1.55.38,2.34.28,2,.51,4,.67,6.07,0,.56.09,1.13.12,1.69l-.31.06Zm5.81,3.13c1.85-.53,3.6-1.11,5.24-1.73.11,1.4.16,2.83.17,4.26Q80,49.07,77.34,47.72Zm9.86,4.36-.71-.28c0-.18,0-.36,0-.55,0-1.78-.07-3.54-.2-5.27,0-.5-.06-1-.11-1.51l.57-.27c1.13-.56,2.2-1.15,3.18-1.75,0,.25.07.51.11.77q.3,2,.44,4c.09,1.31.14,2.64.12,4,0,.69,0,1.38,0,2.06C89.45,52.92,88.33,52.5,87.21,52.07Zm7,2.42s0,0,0-.07a19.35,19.35,0,0,0,3-3c0,1.3-.07,2.59-.18,3.87C96.12,55,95.18,54.78,94.25,54.49Z"/></svg>