<svg id="Layer_2" data-name="Layer 1" xmlns="http://www.w3.org/2000/svg" viewBox="0 0 89 101"><defs><style>.cls-2{fill:#c2000b;}</style></defs><title>servicio tres</title><path class="cls-2" d="M24.77,41.63C29.49,52.86,38.48,59,44.48,59s14.15-5.9,18.94-17a51.62,51.62,0,0,0,2.87-9.49A37.78,37.78,0,0,0,67.5,22C67.5,10.54,57.19.83,44.48.83s-23,9.71-23,21.22a50.31,50.31,0,0,0,.53,7.8A45.79,45.79,0,0,0,24.77,41.63Z"/><path class="cls-2" d="M85.18,74.42c-4.6-4.92-17.54-3.69-23.93-7.07-2.84,5.32-2.88,14.06-7.6,14.06a4.06,4.06,0,0,1-.63,0c-7.11-1.06-3.56-19.2-8.54-19.2s-1.42,18.14-8.53,19.2a4.07,4.07,0,0,1-.63,0c-4.72,0-4.76-8.74-7.6-14.06C21.32,70.73,8.39,69.5,3.8,74.42,1.31,77.09,0,93.59,0,100.92H88.94C88.94,93.59,87.66,77.09,85.18,74.42Z"/></svg>