<svg id="Layer_1" data-name="Layer 1" xmlns="http://www.w3.org/2000/svg" viewBox="0 0 105 101"><defs><style>.cls-1{fill:#c2000b;}</style></defs><title>servicio uno</title><polygon class="cls-1" points="59.66 5.79 52.27 0.58 44.87 5.79 2.58 35.54 2.58 35.65 2.58 35.76 44.87 65.52 52.27 60.31 59.66 65.52 101.89 35.8 101.89 35.65 101.89 35.51 59.66 5.79"/><polygon class="cls-1" points="62.46 68.31 104.69 98.03 104.69 38.6 62.46 68.31"/><polygon class="cls-1" points="-0.21 38.56 -0.21 98.07 42.07 68.31 -0.21 38.56"/><polygon class="cls-1" points="59.66 71.11 52.27 65.9 44.87 71.11 2.58 100.86 2.58 100.92 17.3 100.92 87.23 100.92 101.89 100.92 101.89 100.83 59.66 71.11"/></svg>