<svg id="Layer_1" data-name="Layer 1" xmlns="http://www.w3.org/2000/svg" viewBox="0 0 75 101"><defs><style>.cls-1{fill:#c2000b;}</style></defs><title>ubicacion</title><circle class="cls-1" cx="37.74" cy="37.59" r="12.09"/><path class="cls-1" d="M31.05,95.27h0l.7.72.11.11.54.55.16.16.49.49.13.13,1.15,1.13.14.14.36.35.18.17.32.31.15.14.42.4a3.89,3.89,0,0,0,.45.37l.15.09a2.67,2.67,0,0,0,.31.17l.19.07a2,2,0,0,0,.28.09l.2,0,.26,0h0l.22,0,.18,0,.26-.07.17-.06a2.28,2.28,0,0,0,.28-.15l.14-.07a3.66,3.66,0,0,0,.4-.32l.43-.41.09-.09.41-.39.08-.08c.53-.51,1.13-1.09,1.79-1.75l0,0q1-1,2.12-2.14l.06-.07h0C55.15,84.22,75,60.74,75,38.43,75,17.11,57.49-.17,37.74-.17S.48,17.11.48,38.43c0,22.31,19.85,45.79,30.57,56.84ZM17.69,37.59a20,20,0,1,1,20.05,20A20,20,0,0,1,17.69,37.59Z"/></svg>