<svg id="Layer_1" data-name="Layer 1" xmlns="http://www.w3.org/2000/svg" viewBox="0 0 99 101"><defs><style>.cls-1{fill:#c2000b;}</style></defs><title>ver mas</title><path class="cls-1" d="M49.41,15.52a13.22,13.22,0,0,0-1.95-1.73l-1.2-.91-1.39-.81a21,21,0,0,0-3.18-1.46A23.87,23.87,0,0,0,38,9.67a25.19,25.19,0,0,0-3.88-.36,24.43,24.43,0,0,0-7.52,1.31,21.48,21.48,0,0,0-3.18,1.47c-.48.27-1,.53-1.39.8l-1.2.91a13.55,13.55,0,0,0-2,1.74A9.22,9.22,0,0,0,17.6,17c-.65.87-1,1.4-1,1.4s.56-.3,1.49-.86a14.89,14.89,0,0,1,1.69-.92c.64-.33,1.35-.7,2.18-1l1.26-.54,1.37-.48c.91-.38,2-.53,3-.86s2.13-.43,3.24-.51S33,13.06,34.17,13a33.25,33.25,0,0,1,3.36.22c1.11.09,2.19.33,3.24.51s2.06.48,3,.86a24.93,24.93,0,0,1,2.63,1,23.7,23.7,0,0,1,2.19,1,16,16,0,0,1,1.67.91c.92.55,1.49.85,1.49.85s-.34-.51-1-1.4A9.56,9.56,0,0,0,49.41,15.52Z"/><path class="cls-1" d="M70,64.13a3.11,3.11,0,0,0-3.22-.73l-6.06-6.06a34.15,34.15,0,1,0-5.22,5.22l6.06,6.06a3.1,3.1,0,0,0,.73,3.22l21,21,7.71-7.71ZM12.65,57.49A30.43,30.43,0,1,1,34.16,66.4,30.46,30.46,0,0,1,12.65,57.49Z"/><rect class="cls-1" x="84.72" y="89.88" width="10.9" height="4.18" transform="translate(-38.63 90.67) rotate(-44.99)"/><path class="cls-1" d="M98.21,92.3,97,91.09l-7.71,7.71L90.5,100a3.11,3.11,0,0,0,4.4,0l3.3-3.3A3.12,3.12,0,0,0,98.21,92.3Z"/></svg>