<svg width="23px" height="23px" id="Layer_1" data-name="Layer 1" xmlns="http://www.w3.org/2000/svg" viewBox="0 0 100 101"><defs><style>.cls-1{fill:#c2000b;}</style></defs><title>whatsapp</title><path class="cls-1" d="M100.43,48.12a49.1,49.1,0,0,0-98.1-.91c0,.71-.05,1.43-.05,2.15a48.2,48.2,0,0,0,7,25.15L.46,100.65,27.64,92a49.17,49.17,0,0,0,72.82-42.65C100.46,48.95,100.44,48.54,100.43,48.12ZM51.37,90.31a41.23,41.23,0,0,1-22.71-6.77l-15.86,5L18,73.37a40.54,40.54,0,0,1-7.86-24c0-1.34.07-2.66.2-4a41.29,41.29,0,0,1,82.21.77c.08,1.05.14,2.12.14,3.2A41.16,41.16,0,0,1,51.37,90.31Z"/><path id="_Path_" data-name="&lt;Path&gt;" class="cls-1" d="M73.86,59.18c-1.2-.6-7.12-3.49-8.23-3.88s-1.91-.6-2.71.6-3.11,3.88-3.81,4.68-1.4.9-2.6.3A32.87,32.87,0,0,1,46.83,55a35.82,35.82,0,0,1-6.69-8.27c-.7-1.19-.07-1.84.53-2.43s1.2-1.4,1.81-2.09a5.52,5.52,0,0,0,.44-.57,12.8,12.8,0,0,0,.77-1.42,2.19,2.19,0,0,0-.1-2.09c-.3-.6-2.71-6.48-3.71-8.86s-2-2-2.71-2-1.5-.1-2.31-.1a4.43,4.43,0,0,0-3.21,1.5,13.34,13.34,0,0,0-4.21,10A14.8,14.8,0,0,0,28,42.64a27,27,0,0,0,4.29,8.28c.6.79,8.32,13.24,20.55,18s12.24,3.19,14.45,3,7.12-2.89,8.12-5.68,1-5.18.7-5.68S75.06,59.78,73.86,59.18Z"/></svg>